<svg xmlns="http://www.w3.org/2000/svg" viewBox="0 0 187.89 41.88"><defs><style>.cls-1{fill:#fff;}.cls-2{fill:#d81918;}.cls-3{fill:#f4de2d;}.cls-4{fill:#1e85c4;}.cls-5{fill:#88ba41;}.cls-6{fill:#010100;}</style></defs><title>Asset 1</title><g id="Layer_2" data-name="Layer 2"><g id="圖層_2" data-name="圖層 2"><path class="cls-1" d="M74,33.75c-3.43.07-6.83.14-10.12.14-2.58,0-5.08,0-7.55-.14-3-.13-4.63-1.61-4.74-4.15s-.13-4.9-.13-7.48c0-3.08.07-6.24.13-9.33,0-2.19,1.92-3.81,4.5-3.88,3-.06,5.9-.1,8.85-.1s6,0,9.23.1c2.67.07,4.56,1.31,4.63,4.12.07,3.09.17,6.45.17,9.68,0,2.36-.07,4.7-.17,6.79C78.65,32.28,76.9,33.68,74,33.75Zm-2.23-12a1.32,1.32,0,0,1,1.4-1.38,1.47,1.47,0,0,1,1.58,1.55c0,4.11-2.09,4.59-4.8,4.59-1.68,0-3.64-.34-3.64-3.22,0-3.33,0-7.65.07-11.46H63.15c0,.79,0,1.58,0,2.37,0,5.14-.58,10.56-5.46,13.21a1.81,1.81,0,0,1-.89.24,1.88,1.88,0,0,1-1.71-1.89,1.14,1.14,0,0,1,.68-1.1c3.71-1.71,4.33-6.07,4.33-10.26,0-.85,0-1.75-.07-2.57-.93,0-1.86,0-2.75,0-1.88,0-2.47.75-2.54,2.33-.06,1.78-.1,4.6-.1,7.41,0,2.54,0,5,.1,6.76s.86,2.3,2.89,2.33c2.5.07,5.21.1,8,.1,2.4,0,4.84,0,7.24-.1,1.92-.07,2.5-1,2.57-2.44.1-2.12.17-4.56.17-7s-.07-4.91-.17-7.07c-.1-1.82-.75-2.3-2.43-2.33-1.17,0-2.41,0-3.61,0,0,3-.07,6.42-.07,9.23V23c0,.72,1,.75,1.21.75.85,0,1.2-.34,1.2-1.78v-.17Z"/><path class="cls-1" d="M114.5,28.92l-9.88-.11a6.8,6.8,0,0,1,.07.89c0,2.51-1.23,6.11-6.55,6.11-1.92,0-4.12-.34-4.12-1.92a1.51,1.51,0,0,1,1.51-1.54,1.92,1.92,0,0,1,.59.1,8.45,8.45,0,0,0,2.47.45c2.67,0,3-2.44,3-3.37a5.83,5.83,0,0,0-.06-.72L87.78,29h0a1.43,1.43,0,0,1-1.51-1.47,1.39,1.39,0,0,1,1.48-1.41h0l11.46.14L98.69,26a1.07,1.07,0,0,1-.83-1,1.59,1.59,0,0,1,1.69-1.4,5.17,5.17,0,0,1,2,.72c2.34-1.27,2.41-1.54,2.41-1.65a.23.23,0,0,0-.21-.24c-1.75,0-6.62,0-9.26.14h-.11A1.28,1.28,0,0,1,93,21.33a1.33,1.33,0,0,1,.34-.85c-1.27.68-4.87,2.64-5.93,2.64a1.68,1.68,0,0,1-1.75-1.51,1.52,1.52,0,0,1,1.16-1.37A34.46,34.46,0,0,0,97.38,14.4h-9a1.36,1.36,0,1,1,0-2.71H99.51l-.07-2.12c-2.12.1-4.18.13-5.9.13-.86,0-1.64,0-2.3,0a1.4,1.4,0,0,1-1.47-1.41A1.28,1.28,0,0,1,91.18,7h.06c1,0,2.1,0,3.23,0a91.53,91.53,0,0,0,14.37-1,2,2,0,0,1,.42,0,1.49,1.49,0,0,1,1.57,1.51,1.22,1.22,0,0,1-1.06,1.27c-1.85.31-4.43.51-7.1.69l-.07,2.29h11.25a1.36,1.36,0,1,1,0,2.71h-9.3a39.55,39.55,0,0,0,10.81,5.15,1.4,1.4,0,0,1,1.1,1.3,2,2,0,0,1-2,1.82c-.92,0-6.51-2.26-11.87-6.59l0,2.34v0c0,.86-.79,1.27-1.61,1.27s-1.62-.44-1.62-1.27v0l0-2.23a35.43,35.43,0,0,1-5.39,3.87,1.38,1.38,0,0,1,.38-.06c1.16,0,2.78-.07,4.42-.07,2.58,0,5.29,0,6.76.07,2,0,2.68.85,2.68,1.75,0,1.3-1.37,2.5-4.8,4.28,0,.07.1.11.13.18l10.84-.14h0A1.38,1.38,0,0,1,116,27.51a1.36,1.36,0,0,1-1.44,1.41Z"/><path class="cls-1" d="M122.77,33.44a1.44,1.44,0,0,1-1.51-1.33,1.57,1.57,0,0,1,.28-.9,15.94,15.94,0,0,0,2-5.93,1.27,1.27,0,0,1,1.3-1.2,1.48,1.48,0,0,1,1.51,1.51,20.64,20.64,0,0,1-2.23,7.1A1.62,1.62,0,0,1,122.77,33.44Zm4.33.69.1-11.9c-1.75.24-3.84.48-4,.48a1.3,1.3,0,0,1-1.27-1.38,1.2,1.2,0,0,1,1.1-1.27l1.51-.1c.62-.72,1.34-1.58,2-2.54a34.94,34.94,0,0,0-3.87-3.19,1.33,1.33,0,0,1,.72-2.47,2.27,2.27,0,0,1,.92.31,24.55,24.55,0,0,0,2.64-5.87,1.32,1.32,0,0,1,1.38-1A1.6,1.6,0,0,1,130,6.65a23.35,23.35,0,0,1-3.5,7c.55.45,1.1,1,1.55,1.38a39.15,39.15,0,0,0,2.6-4.94,1.39,1.39,0,0,1,1.34-.9,1.58,1.58,0,0,1,1.65,1.44c0,1-3.12,5.84-5.49,9,1.34-.14,2.64-.31,3.5-.41-.21-.38-.45-.76-.65-1.07a1.07,1.07,0,0,1-.21-.61,1.23,1.23,0,0,1,1.3-1.07,1.33,1.33,0,0,1,.9.38c.58.62,2.09,2.92,2.09,4.05a1.47,1.47,0,0,1-.79,1.27.57.57,0,0,1,.27,0c.86,0,1.86-.07,2.89-.07,1.2,0,3,0,3,2.06a5.18,5.18,0,0,1-.17,1.2c-1.51,5.63-5.35,9.27-6.62,9.27A1.77,1.77,0,0,1,132,33a1.33,1.33,0,0,1,.65-1.06A12.88,12.88,0,0,0,137.39,25a.36.36,0,0,0-.38-.38l-2.44.1a1.19,1.19,0,0,1-1.2-1.3,1.4,1.4,0,0,1,.59-1.17,1.54,1.54,0,0,1-.42.07,1,1,0,0,1-1-.89l0-.1-2.33.41.07,12.35a1.56,1.56,0,0,1-1.62,1.58,1.47,1.47,0,0,1-1.5-1.55Zm6-4.18a1.23,1.23,0,0,1-1.27-1.17,9.88,9.88,0,0,0-1.16-3.47,1.13,1.13,0,0,1-.17-.55,1.25,1.25,0,0,1,1.33-1.09,1.17,1.17,0,0,1,1,.48c.38.51,1.79,2.91,1.79,4.29A1.53,1.53,0,0,1,133.13,30Zm8-9.95c-.79,0-1.58,0-2.34-.07-2.16-.14-3.53-1.38-3.56-3.12,0-.55,0-1.07,0-1.62,0-1.3.07-2.6.1-3.87.07-1.51,1.21-2.89,3.44-3,.54,0,1.09,0,1.64,0a16.54,16.54,0,0,0,.45-2.3c.07-.69.75-1,1.47-1,.9,0,1.82.48,1.82,1.41a5.76,5.76,0,0,1-.51,1.88c1.06,0,2.12,0,3.22.07a3.32,3.32,0,0,1,3.23,2.75c.07,1,.07,2.09.07,3.15,0,.89,0,1.75,0,2.54a3.46,3.46,0,0,1-3.43,3.16c-.93,0-1.82.07-2.71.07v.61a19.54,19.54,0,0,0,1.82,4,16.58,16.58,0,0,0,3.12-2.78,1.33,1.33,0,0,1,1-.48A1.75,1.75,0,0,1,151.56,23c0,1.48-4.09,3.67-4.33,3.81a17.47,17.47,0,0,0,4.67,4.12,1.5,1.5,0,0,1,.82,1.33A1.73,1.73,0,0,1,151,33.92c-1.61,0-5-3.6-7.1-7.78l0,.41.21,4.9v.24c0,1.82-1,4.05-4.43,4.05-2.61,0-3.19-.61-3.19-1.75a1.38,1.38,0,0,1,1.27-1.54.93.93,0,0,1,.27,0,7.83,7.83,0,0,0,1.62.24c.92,0,1.51-.41,1.51-2ZM138,15.23c0,.34,0,.72,0,1,0,1.2,1.07,1.27,4.53,1.27s4.46,0,4.53-1.34c0-.31,0-.62,0-1Zm9.13-3.16a1.28,1.28,0,0,0-1.41-1.27c-1.1,0-2.16-.07-3.19-.07s-2.06,0-3.06.07a1.29,1.29,0,0,0-1.4,1.31c0,.24,0,.48,0,.75h9.1Z"/><path class="cls-1" d="M160,34.3a1.53,1.53,0,0,1-1.51-1.64A1.45,1.45,0,0,1,160,31.11H170.6V7.89a1.8,1.8,0,0,1,3.6,0v8.78l9.3-2.37A1.5,1.5,0,0,1,185,15.88a1.54,1.54,0,0,1-1.51,1.65l-9.3,2.36V31.11h12.21a1.47,1.47,0,0,1,1.48,1.58,1.52,1.52,0,0,1-1.48,1.61Z"/><path class="cls-1" d="M36.23,20.94A11.21,11.21,0,1,0,20.94,5.65,11.21,11.21,0,1,0,5.65,20.94,11.21,11.21,0,1,0,20.94,36.23,11.21,11.21,0,1,0,36.23,20.94Z"/><path class="cls-2" d="M11.22,1.5a9.72,9.72,0,0,0,0,19.44h9.72V11.22A9.72,9.72,0,0,0,11.22,1.5Z"/><path class="cls-3" d="M11.22,20.94a9.72,9.72,0,1,0,9.72,9.72V20.94Z"/><path class="cls-4" d="M30.66,1.5a9.72,9.72,0,0,0-9.72,9.72v9.72h9.72a9.72,9.72,0,1,0,0-19.44Z"/><path class="cls-5" d="M30.66,20.94H20.94v9.72a9.72,9.72,0,1,0,9.72-9.72Z"/><circle class="cls-1" cx="20.94" cy="20.94" r="7.46" transform="translate(-4.11 36.73) rotate(-77.22)"/><path class="cls-6" d="M18.68,22.5V16.83c0-.78.51-1,1.14-.57l1.49,1.12,2.28,1.72,1.5,1.12a1,1,0,0,1,0,1.71l-1.5,1.12-2.28,1.72-1.49,1.12c-.63.47-1.14.21-1.14-.57Z"/></g></g></svg>